<svg width="2470" height="1080" viewBox="0 0 2470 1080" fill="none" xmlns="http://www.w3.org/2000/svg">
<path fill-rule="evenodd" clip-rule="evenodd" d="M740.294 87.534C721.407 92.622 702.983 109.735 696.727 128C694.572 134.292 694.485 136.104 694.001 184.5L693.5 234.5L672.5 213.986C643.018 185.187 640.556 184.039 608.024 183.921C589.891 183.855 587.945 184.026 580.716 186.329C560.975 192.618 543.149 211.541 538.537 231.103C537.324 236.252 537.026 245.501 537.012 278.5L536.995 319.5L509.248 319.538C486.078 319.569 480.427 319.864 475 321.321C451.448 327.648 430.57 346.16 421.41 368.837C416.023 382.172 416 382.614 416 470.591V552.052L431.25 551.776L446.5 551.5L447 469.5L447.5 387.5L449.78 382.136C456.166 367.114 467.819 357.141 483.231 353.508C487.832 352.423 495.845 352.026 513.348 352.015L537.196 352L536.601 367.25C536.274 375.637 535.611 383.876 535.128 385.558C532.908 393.289 527.573 400.609 516.344 411.335C509.403 417.965 509.118 418.123 506.831 416.625C499.2 411.625 485.649 412.612 478.96 418.655C473.568 423.526 471.603 429.213 472.24 438.105C472.69 444.397 473.538 446.788 479.6 458.858L486.452 472.5L486.976 491.173C487.482 509.212 487.582 509.934 489.924 512.423C491.89 514.512 493.277 515 497.251 515C501.337 515 502.641 514.513 505.077 512.077L508 509.154V491.873V474.592L512.643 465.046C516.984 456.12 518.368 454.396 533.943 438.5C555.667 416.329 559.873 410.38 565.058 394.5C567.247 387.792 567.361 385.836 567.768 347.678L568.193 307.856L585.346 324.698C604.239 343.247 609.148 346.585 622.596 350.025C632.687 352.605 661.275 352.861 670.52 350.453C683.127 347.169 693.739 341.313 702.852 332.611C713.476 322.465 719.794 312.037 723.065 299.244C724.809 292.428 725 287.986 725 254.34V217H739.053C756.015 217 764.334 215.355 775.5 209.795C790.339 202.405 801.602 191.477 808.647 177.636C817.859 159.534 818.44 135.543 810.062 119.122C802.232 103.772 787.276 91.977 769.955 87.488C762.803 85.635 747.254 85.659 740.294 87.534ZM479.5 109.617C422 115.297 371.344 130.387 324.572 155.768C254.272 193.917 193.692 257.968 158.402 331.459C132.149 386.131 119.932 439.94 119.909 501C119.889 553.22 125.296 587.565 140.509 631.849C154.473 672.495 173.971 707.827 204 746.898C208.675 752.981 212.859 757.967 213.297 757.979C213.736 757.99 213.961 746.413 213.797 732.25L213.5 706.5L204.814 692.928C185.885 663.353 171.174 628.548 161.57 590.612C150.038 545.065 148.29 485.615 157.052 436.956C164.851 393.643 184.134 344.592 207.748 308C238.328 260.613 281.282 219.031 327.256 192.306C369.466 167.771 414.235 152.115 462.906 144.87C480.659 142.228 519.466 141.252 539.309 142.948C580.361 146.459 622.25 156.747 655.279 171.431C663.23 174.966 666.406 174.794 670.6 170.6L674 167.2V155.623C674 142.011 675.019 143.293 659.211 137.032C627.638 124.528 595.582 116.255 559.775 111.37C549.041 109.905 489.697 108.609 479.5 109.617ZM742.5 120.296C736.475 123.184 730.829 128.801 727.762 134.958C725.646 139.208 725.48 140.97 725.181 162.356L724.863 185.213L740.681 184.856C755.691 184.518 756.797 184.354 762.311 181.646C770.108 177.818 778.395 169.564 781.708 162.326C785.517 154.006 785.587 142.779 781.877 135C776.49 123.702 768.965 118.837 756 118.27C748.624 117.948 746.839 118.216 742.5 120.296ZM589.939 217.323C584.4 218.868 580.365 221.642 575.316 227.379C569.616 233.854 567.989 239.454 567.995 252.575L568 263.651L582.25 277.758C590.087 285.517 597.715 292.81 599.2 293.966L601.9 296.067L602.2 271.548L602.5 247.03L606.267 243.265C609.61 239.923 610.591 239.5 614.997 239.5C619.27 239.5 620.417 239.955 623.231 242.767L626.5 246.035L627 280.267C627.411 308.394 627.768 314.91 629 316.798C630.49 319.08 630.628 319.094 649.5 318.798C667.066 318.522 668.859 318.323 673.25 316.161C684.16 310.788 692.302 298.703 693.57 286L694.218 279.5L687.859 273.533C684.362 270.251 670.555 256.858 657.179 243.772C643.802 230.685 631.427 219.199 629.679 218.247C625.549 215.998 597.062 215.336 589.939 217.323ZM776.056 234.554L762.612 241.058L769.145 247.779C807.655 287.394 837.829 336.707 854.917 387.959C867.398 425.393 872.997 460.275 872.999 500.605C873.001 534.683 870.025 560.77 862.898 589.162C843.054 668.212 800.654 734.489 737.407 785.322L729.313 791.827L728.628 808.163C728.251 817.149 727.676 825.985 727.351 827.801L726.758 831.102L730.629 828.943C747.001 819.812 779.285 792.376 798.696 771.098C859.25 704.72 891.159 636.816 902.124 551C905.136 527.425 905.431 477.172 902.685 455.5C899.004 426.455 893.799 403.339 885.007 377C868.037 326.161 843.197 283.753 805.16 240.679C795.759 230.033 793.426 227.976 790.816 228.025C790.092 228.038 783.45 230.976 776.056 234.554ZM292.096 461.265C290.774 461.944 288.749 463.77 287.596 465.322C285.57 468.049 285.49 469.379 285.203 505.252C284.883 545.359 284.966 546.11 290.206 550.52L293.153 553H340H386.847L389.905 550.426C391.587 549.011 393.451 546.198 394.047 544.176C394.764 541.746 395.024 528.472 394.815 505C394.534 473.321 394.31 469.152 392.733 466.267C389.273 459.936 389.804 459.998 339.8 460.015C305.837 460.026 293.898 460.339 292.096 461.265Z" fill="#63D3BB"/>
<path fill-rule="evenodd" clip-rule="evenodd" d="M586.41 386.143C586.192 386.497 584.04 392.613 581.627 399.734C579.215 406.855 576.721 413.653 576.085 414.841L574.93 417H608.281C627.909 417 644.074 417.446 647.566 418.083C670.835 422.332 689.53 439.246 696.66 462.5C698.417 468.229 698.5 476.453 698.5 644.5C698.5 837.948 698.929 824.674 692.218 839C689.478 844.848 686.92 848.262 680.602 854.5C671.686 863.304 665.033 867.17 653.66 870.156C646.96 871.915 638.519 871.999 471.068 871.985C276.756 871.969 289.742 872.408 275.746 865.386C266.339 860.666 254.86 849.231 250.263 840C243.537 826.494 243.946 839.808 244.236 643.423L244.5 465.5L246.871 459C254.337 438.531 267.672 425.784 288.5 419.206C292.733 417.869 301.82 417.57 347.75 417.258L402 416.89V401.445V386H348.588C291.18 386 287.723 386.245 273.031 391.355C257.214 396.855 240.412 409.557 230.407 423.578C224.291 432.149 218.669 444.678 215.858 456L213.5 465.5L213.329 638C213.233 734.61 213.556 814.679 214.062 820C214.559 825.225 215.697 832.425 216.59 836C218.486 843.584 225.42 858.844 229.989 865.484C240.595 880.899 257.062 893.162 275.704 899.527C288.958 904.052 286.57 903.997 470.119 903.999C655.001 904 651.802 904.076 666.5 899.334C693.999 890.46 716.225 867.734 724.879 839.639C728.947 826.433 729.14 816.407 728.813 635L728.5 461.5L725.848 451.911C721.558 436.396 714.562 424.425 703.068 412.932C690.533 400.396 679.025 394.028 657 387.439C653.855 386.498 586.947 385.27 586.41 386.143ZM431.25 551.748L416 552.052V695.541V839.029L419.353 842.689C422.325 845.931 423.275 846.356 427.699 846.424C433.58 846.514 437.032 844.909 439.331 841.017C440.804 838.523 441 834.079 441 803.096V768H487.464H533.928L534.214 803.982L534.5 839.964L537.712 843.174C540.483 845.945 541.619 846.385 546 846.385C550.381 846.385 551.517 845.945 554.288 843.174L557.5 839.964L557.786 803.982L558.072 768H605.113H652.154L655.003 765.15C660.391 759.763 659.582 750.394 653.379 746.328C650.797 744.635 647.169 744.479 604.295 744.212L558 743.924V707.962V672H605.077H652.154L655.003 669.15C658.752 665.402 659.702 660.281 657.507 655.656C654.001 648.267 655.905 648.534 604.25 648.212L558 647.924V611V574.075L604.92 573.787L651.841 573.5L654.391 571.103C659.915 565.912 659.869 557.402 654.293 553.016C651.757 551.021 650.652 551.002 549.115 551.222C492.677 551.344 439.637 551.581 431.25 551.748ZM288.923 574.923L286 577.846V610.473C286 645.87 286.214 647.41 291.472 649.805C293.386 650.677 306.757 651 340.97 651H387.846L390.782 648.064C392.536 646.31 393.971 643.594 394.348 641.314C395.289 635.617 395.045 586.186 394.05 581.029C393.498 578.164 392.236 575.74 390.538 574.279L387.888 572H339.867H291.846L288.923 574.923ZM441 611V648H487.5H534V611V574H487.5H441V611ZM293.284 669.701C292.065 669.937 289.928 671.485 288.534 673.142L286 676.153V707.53C286 727.96 286.379 739.737 287.085 741.288C289.692 747.01 289.599 747 340.714 747H387.62L390.759 743.931C394.971 739.814 395.196 737.648 394.818 704.821C394.516 678.56 394.393 676.997 392.406 674.321C388.656 669.267 386.998 669.107 339.5 669.193C315.3 669.236 294.503 669.465 293.284 669.701ZM441.238 708.012L441.5 744.023L487.75 744.262L534 744.5V708.25V672H487.488H440.975L441.238 708.012ZM291.11 766.396C286.237 769.096 286.073 770.321 286.035 804.3C285.997 838.914 286.3 841.023 291.613 843.043C293.086 843.603 313.551 844 340.93 844C386.624 844 387.792 843.951 390.341 841.946C394.747 838.481 395.164 834.833 394.82 802.821C394.515 774.516 394.403 773.012 392.404 770.321C388.431 764.975 388.966 765.028 339.5 765.05C303.218 765.066 292.995 765.351 291.11 766.396Z" fill="#294751"/>
<path d="M2248.43 502.6C2236.43 502.6 2227.37 505.8 2221.23 512.2C2215.1 518.333 2211.23 529 2209.63 544.2C2209.63 546.333 2210.57 547.4 2212.43 547.4H2280.03C2282.43 547.4 2283.63 546.2 2283.63 543.8C2282.57 516.333 2270.83 502.6 2248.43 502.6ZM2258.43 675C2222.17 675 2194.17 665.8 2174.43 647.4C2154.97 629 2145.23 602.2 2145.23 567C2145.23 532.067 2153.9 505.4 2171.23 487C2188.83 468.333 2214.17 459 2247.23 459C2310.7 459 2342.97 493.667 2344.03 563C2344.03 569.4 2341.5 574.867 2336.43 579.4C2331.63 583.667 2326.03 585.8 2319.63 585.8H2212.83C2210.17 585.8 2209.1 587 2209.63 589.4C2211.77 604.067 2217.37 614.6 2226.43 621C2235.77 627.133 2249.63 630.2 2268.03 630.2C2280.03 630.2 2292.97 628.467 2306.83 625C2312.43 623.667 2317.37 624.733 2321.63 628.2C2326.17 631.667 2328.43 636.2 2328.43 641.8V642.6C2328.43 649.267 2326.3 655.4 2322.03 661C2318.03 666.333 2312.83 669.533 2306.43 670.6C2290.97 673.533 2274.97 675 2258.43 675Z" fill="#63D2BB"/>
<path d="M1841.8 671C1835.67 671 1830.33 668.733 1825.8 664.2C1821.27 659.667 1819 654.333 1819 648.2V485.8C1819 479.667 1821.27 474.333 1825.8 469.8C1830.33 465.267 1835.67 463 1841.8 463H1856.6C1863 463 1868.33 465.267 1872.6 469.8C1877.13 474.067 1879.67 479.4 1880.2 485.8L1880.6 489.4C1880.6 489.667 1880.73 489.8 1881 489.8C1881.53 489.8 1881.8 489.667 1881.8 489.4C1897.53 469.133 1915.53 459 1935.8 459C1948.07 459 1957.8 461.267 1965 465.8C1972.2 470.067 1978.87 477.8 1985 489C1985 489.533 1985.27 489.8 1985.8 489.8L1986.6 489C2005 469 2024.2 459 2044.2 459C2066.87 459 2083.27 465.133 2093.4 477.4C2103.53 489.4 2108.6 509.933 2108.6 539V648.2C2108.6 654.333 2106.33 659.667 2101.8 664.2C2097.27 668.733 2091.93 671 2085.8 671H2068.2C2062.07 671 2056.73 668.733 2052.2 664.2C2047.67 659.667 2045.4 654.333 2045.4 648.2V543C2045.4 528.6 2043.8 519.133 2040.6 514.6C2037.4 509.8 2031.4 507.4 2022.6 507.4C2016.47 507.4 2010.47 509.933 2004.6 515C1999 520.067 1996.2 525 1996.2 529.8V648.2C1996.2 654.333 1993.93 659.667 1989.4 664.2C1984.87 668.733 1979.53 671 1973.4 671H1955.8C1949.67 671 1944.33 668.733 1939.8 664.2C1935.27 659.667 1933 654.333 1933 648.2V543C1933 528.6 1931.4 519.133 1928.2 514.6C1925.27 509.8 1919.4 507.4 1910.6 507.4C1904.47 507.4 1898.47 509.933 1892.6 515C1886.73 520.067 1883.8 525 1883.8 529.8V648.2C1883.8 654.333 1881.53 659.667 1877 664.2C1872.47 668.733 1867.13 671 1861 671H1841.8Z" fill="#63D2BB"/>
<path d="M1634.54 542.2V591.8C1634.54 600.6 1638.54 608.733 1646.54 616.2C1654.81 623.4 1664.14 627 1674.54 627C1686.81 627 1696.54 622.067 1703.74 612.2C1710.94 602.067 1714.54 587 1714.54 567C1714.54 527 1701.21 507 1674.54 507C1664.14 507 1654.81 510.733 1646.54 518.2C1638.54 525.4 1634.54 533.4 1634.54 542.2ZM1594.14 759C1588.01 759 1582.68 756.733 1578.14 752.2C1573.61 747.667 1571.34 742.333 1571.34 736.2V485.8C1571.34 479.667 1573.61 474.333 1578.14 469.8C1582.68 465.267 1588.01 463 1594.14 463H1610.14C1616.54 463 1622.01 465.267 1626.54 469.8C1631.08 474.067 1633.48 479.4 1633.74 485.8V489C1633.74 489.267 1633.88 489.4 1634.14 489.4L1634.94 488.6C1652.01 468.867 1672.54 459 1696.54 459C1721.34 459 1741.08 468.333 1755.74 487C1770.68 505.667 1778.14 532.333 1778.14 567C1778.14 600.6 1770.41 627 1754.94 646.2C1739.74 665.4 1720.28 675 1696.54 675C1674.41 675 1654.68 666.867 1637.34 650.6C1637.08 650.333 1636.81 650.2 1636.54 650.2C1636.28 650.2 1636.14 650.333 1636.14 650.6V736.2C1636.14 742.333 1633.88 747.667 1629.34 752.2C1624.81 756.733 1619.48 759 1613.34 759H1594.14Z" fill="#284650"/>
<path d="M1434.76 502.6C1422.76 502.6 1413.7 505.8 1407.56 512.2C1401.43 518.333 1397.56 529 1395.96 544.2C1395.96 546.333 1396.9 547.4 1398.76 547.4H1466.36C1468.76 547.4 1469.96 546.2 1469.96 543.8C1468.9 516.333 1457.16 502.6 1434.76 502.6ZM1444.76 675C1408.5 675 1380.5 665.8 1360.76 647.4C1341.3 629 1331.56 602.2 1331.56 567C1331.56 532.067 1340.23 505.4 1357.56 487C1375.16 468.333 1400.5 459 1433.56 459C1497.03 459 1529.3 493.667 1530.36 563C1530.36 569.4 1527.83 574.867 1522.76 579.4C1517.96 583.667 1512.36 585.8 1505.96 585.8H1399.16C1396.5 585.8 1395.43 587 1395.96 589.4C1398.1 604.067 1403.7 614.6 1412.76 621C1422.1 627.133 1435.96 630.2 1454.36 630.2C1466.36 630.2 1479.3 628.467 1493.16 625C1498.76 623.667 1503.7 624.733 1507.96 628.2C1512.5 631.667 1514.76 636.2 1514.76 641.8V642.6C1514.76 649.267 1512.63 655.4 1508.36 661C1504.36 666.333 1499.16 669.533 1492.76 670.6C1477.3 673.533 1461.3 675 1444.76 675Z" fill="#284650"/>
<path d="M1157.2 542.2V591.8C1157.2 600.6 1161.2 608.733 1169.2 616.2C1177.47 623.4 1186.8 627 1197.2 627C1209.47 627 1219.2 622.067 1226.4 612.2C1233.6 602.067 1237.2 587 1237.2 567C1237.2 527 1223.87 507 1197.2 507C1186.8 507 1177.47 510.733 1169.2 518.2C1161.2 525.4 1157.2 533.4 1157.2 542.2ZM1116.8 759C1110.67 759 1105.33 756.733 1100.8 752.2C1096.27 747.667 1094 742.333 1094 736.2V485.8C1094 479.667 1096.27 474.333 1100.8 469.8C1105.33 465.267 1110.67 463 1116.8 463H1132.8C1139.2 463 1144.67 465.267 1149.2 469.8C1153.73 474.067 1156.13 479.4 1156.4 485.8V489C1156.4 489.267 1156.53 489.4 1156.8 489.4L1157.6 488.6C1174.67 468.867 1195.2 459 1219.2 459C1244 459 1263.73 468.333 1278.4 487C1293.33 505.667 1300.8 532.333 1300.8 567C1300.8 600.6 1293.07 627 1277.6 646.2C1262.4 665.4 1242.93 675 1219.2 675C1197.07 675 1177.33 666.867 1160 650.6C1159.73 650.333 1159.47 650.2 1159.2 650.2C1158.93 650.2 1158.8 650.333 1158.8 650.6V736.2C1158.8 742.333 1156.53 747.667 1152 752.2C1147.47 756.733 1142.13 759 1136 759H1116.8Z" fill="#284650"/>
</svg>
