<svg width="2226" height="818" viewBox="0 0 2226 818" fill="none" xmlns="http://www.w3.org/2000/svg">
<path fill-rule="evenodd" clip-rule="evenodd" d="M621.294 1.53404C602.407 6.62204 583.983 23.735 577.727 42C575.572 48.292 575.485 50.104 575.001 98.5L574.5 148.5L553.5 127.986C524.018 99.187 521.556 98.039 489.024 97.921C470.891 97.855 468.945 98.026 461.716 100.329C441.975 106.618 424.149 125.541 419.537 145.103C418.324 150.252 418.026 159.501 418.012 192.5L417.995 233.5L390.248 233.538C367.078 233.569 361.427 233.864 356 235.321C332.448 241.648 311.57 260.16 302.41 282.837C297.023 296.172 297 296.614 297 384.591V466.052L312.25 465.776L327.5 465.5L328 383.5L328.5 301.5L330.78 296.136C337.166 281.114 348.819 271.141 364.231 267.508C368.832 266.423 376.845 266.026 394.348 266.015L418.196 266L417.601 281.25C417.274 289.637 416.611 297.876 416.128 299.558C413.908 307.289 408.573 314.609 397.344 325.335C390.403 331.965 390.118 332.123 387.831 330.625C380.2 325.625 366.649 326.612 359.96 332.655C354.568 337.526 352.603 343.213 353.24 352.105C353.69 358.397 354.538 360.788 360.6 372.858L367.452 386.5L367.976 405.173C368.482 423.212 368.582 423.934 370.924 426.423C372.89 428.512 374.277 429 378.251 429C382.337 429 383.641 428.513 386.077 426.077L389 423.154V405.873V388.592L393.643 379.046C397.984 370.12 399.368 368.396 414.943 352.5C436.667 330.329 440.873 324.38 446.058 308.5C448.247 301.792 448.361 299.836 448.768 261.678L449.193 221.856L466.346 238.698C485.239 257.247 490.148 260.585 503.596 264.025C513.687 266.605 542.275 266.861 551.52 264.453C564.127 261.169 574.739 255.313 583.852 246.611C594.476 236.465 600.794 226.037 604.065 213.244C605.809 206.428 606 201.986 606 168.34V131H620.053C637.015 131 645.334 129.355 656.5 123.795C671.339 116.405 682.602 105.477 689.647 91.636C698.859 73.534 699.44 49.543 691.062 33.122C683.232 17.772 668.276 5.97704 650.955 1.48804C643.803 -0.364961 628.254 -0.340963 621.294 1.53404ZM360.5 23.617C303 29.297 252.344 44.387 205.572 69.768C135.272 107.917 74.692 171.968 39.402 245.459C13.149 300.131 0.931991 353.94 0.908991 415C0.888991 467.22 6.296 501.565 21.509 545.849C35.473 586.495 54.971 621.827 85 660.898C89.675 666.981 93.859 671.967 94.297 671.979C94.736 671.99 94.961 660.413 94.797 646.25L94.5 620.5L85.814 606.928C66.885 577.353 52.174 542.548 42.57 504.612C31.038 459.065 29.29 399.615 38.052 350.956C45.851 307.643 65.134 258.592 88.748 222C119.328 174.613 162.282 133.031 208.256 106.306C250.466 81.771 295.235 66.115 343.906 58.87C361.659 56.228 400.466 55.252 420.309 56.948C461.361 60.459 503.25 70.747 536.279 85.431C544.23 88.966 547.406 88.794 551.6 84.6L555 81.2V69.623C555 56.011 556.019 57.293 540.211 51.032C508.638 38.528 476.582 30.255 440.775 25.37C430.041 23.905 370.697 22.609 360.5 23.617ZM623.5 34.296C617.475 37.184 611.829 42.801 608.762 48.958C606.646 53.208 606.48 54.97 606.181 76.356L605.863 99.213L621.681 98.856C636.691 98.518 637.797 98.354 643.311 95.646C651.108 91.818 659.395 83.564 662.708 76.326C666.517 68.006 666.587 56.779 662.877 49C657.49 37.702 649.965 32.837 637 32.27C629.624 31.948 627.839 32.216 623.5 34.296ZM470.939 131.323C465.4 132.868 461.365 135.642 456.316 141.379C450.616 147.854 448.989 153.454 448.995 166.575L449 177.651L463.25 191.758C471.087 199.517 478.715 206.81 480.2 207.966L482.9 210.067L483.2 185.548L483.5 161.03L487.267 157.265C490.61 153.923 491.591 153.5 495.997 153.5C500.27 153.5 501.417 153.955 504.231 156.767L507.5 160.035L508 194.267C508.411 222.394 508.768 228.91 510 230.798C511.49 233.08 511.628 233.094 530.5 232.798C548.066 232.522 549.859 232.323 554.25 230.161C565.16 224.788 573.302 212.703 574.57 200L575.218 193.5L568.859 187.533C565.362 184.251 551.555 170.858 538.179 157.772C524.802 144.685 512.427 133.199 510.679 132.247C506.549 129.998 478.062 129.336 470.939 131.323ZM657.056 148.554L643.612 155.058L650.145 161.779C688.655 201.394 718.829 250.707 735.917 301.959C748.398 339.393 753.997 374.275 753.999 414.605C754.001 448.683 751.025 474.77 743.898 503.162C724.054 582.212 681.654 648.489 618.407 699.322L610.313 705.827L609.628 722.163C609.251 731.149 608.676 739.985 608.351 741.801L607.758 745.102L611.629 742.943C628.001 733.812 660.285 706.376 679.696 685.098C740.25 618.72 772.159 550.816 783.124 465C786.136 441.425 786.431 391.172 783.685 369.5C780.004 340.455 774.799 317.339 766.007 291C749.037 240.161 724.197 197.753 686.16 154.679C676.759 144.033 674.426 141.976 671.816 142.025C671.092 142.038 664.45 144.976 657.056 148.554ZM173.096 375.265C171.774 375.944 169.749 377.77 168.596 379.322C166.57 382.049 166.49 383.379 166.203 419.252C165.883 459.359 165.966 460.11 171.206 464.52L174.153 467H221H267.847L270.905 464.426C272.587 463.011 274.451 460.198 275.047 458.176C275.764 455.746 276.024 442.472 275.815 419C275.534 387.321 275.31 383.152 273.733 380.267C270.273 373.936 270.804 373.998 220.8 374.015C186.837 374.026 174.898 374.339 173.096 375.265Z" fill="#63D3BB"/>
<path fill-rule="evenodd" clip-rule="evenodd" d="M467.41 300.143C467.192 300.497 465.04 306.613 462.627 313.734C460.215 320.855 457.721 327.653 457.085 328.841L455.93 331H489.281C508.909 331 525.074 331.446 528.566 332.083C551.835 336.332 570.53 353.246 577.66 376.5C579.417 382.229 579.5 390.453 579.5 558.5C579.5 751.948 579.929 738.674 573.218 753C570.478 758.848 567.92 762.262 561.602 768.5C552.686 777.304 546.033 781.17 534.66 784.156C527.96 785.915 519.519 785.999 352.068 785.985C157.756 785.969 170.742 786.408 156.746 779.386C147.339 774.666 135.86 763.231 131.263 754C124.537 740.494 124.946 753.808 125.236 557.423L125.5 379.5L127.871 373C135.337 352.531 148.672 339.784 169.5 333.206C173.733 331.869 182.82 331.57 228.75 331.258L283 330.89V315.445V300H229.588C172.18 300 168.723 300.245 154.031 305.355C138.214 310.855 121.412 323.557 111.407 337.578C105.291 346.149 99.6689 358.678 96.8579 370L94.4999 379.5L94.3289 552C94.2329 648.61 94.5559 728.679 95.0619 734C95.5589 739.225 96.6969 746.425 97.5899 750C99.4859 757.584 106.42 772.844 110.989 779.484C121.595 794.899 138.062 807.162 156.704 813.527C169.958 818.052 167.57 817.997 351.119 817.999C536.001 818 532.802 818.076 547.5 813.334C574.999 804.46 597.225 781.734 605.879 753.639C609.947 740.433 610.14 730.407 609.813 549L609.5 375.5L606.848 365.911C602.558 350.396 595.562 338.425 584.068 326.932C571.533 314.396 560.025 308.028 538 301.439C534.855 300.498 467.947 299.27 467.41 300.143ZM312.25 465.748L297 466.052V609.541V753.029L300.353 756.689C303.325 759.931 304.275 760.356 308.699 760.424C314.58 760.514 318.032 758.909 320.331 755.017C321.804 752.523 322 748.079 322 717.096V682H368.464H414.928L415.214 717.982L415.5 753.964L418.712 757.174C421.483 759.945 422.619 760.385 427 760.385C431.381 760.385 432.517 759.945 435.288 757.174L438.5 753.964L438.786 717.982L439.072 682H486.113H533.154L536.003 679.15C541.391 673.763 540.582 664.394 534.379 660.328C531.797 658.635 528.169 658.479 485.295 658.212L439 657.924V621.962V586H486.077H533.154L536.003 583.15C539.752 579.402 540.702 574.281 538.507 569.656C535.001 562.267 536.905 562.534 485.25 562.212L439 561.924V525V488.075L485.92 487.787L532.841 487.5L535.391 485.103C540.915 479.912 540.869 471.402 535.293 467.016C532.757 465.021 531.652 465.002 430.115 465.222C373.677 465.344 320.637 465.581 312.25 465.748ZM169.923 488.923L167 491.846V524.473C167 559.87 167.214 561.41 172.472 563.805C174.386 564.677 187.757 565 221.97 565H268.846L271.782 562.064C273.536 560.31 274.971 557.594 275.348 555.314C276.289 549.617 276.045 500.186 275.05 495.029C274.498 492.164 273.236 489.74 271.538 488.279L268.888 486H220.867H172.846L169.923 488.923ZM322 525V562H368.5H415V525V488H368.5H322V525ZM174.284 583.701C173.065 583.937 170.928 585.485 169.534 587.142L167 590.153V621.53C167 641.96 167.379 653.737 168.085 655.288C170.692 661.01 170.599 661 221.714 661H268.62L271.759 657.931C275.971 653.814 276.196 651.648 275.818 618.821C275.516 592.56 275.393 590.997 273.406 588.321C269.656 583.267 267.998 583.107 220.5 583.193C196.3 583.236 175.503 583.465 174.284 583.701ZM322.238 622.012L322.5 658.023L368.75 658.262L415 658.5V622.25V586H368.488H321.975L322.238 622.012ZM172.11 680.396C167.237 683.096 167.073 684.321 167.035 718.3C166.997 752.914 167.3 755.023 172.613 757.043C174.086 757.603 194.551 758 221.93 758C267.624 758 268.792 757.951 271.341 755.946C275.747 752.481 276.164 748.833 275.82 716.821C275.515 688.516 275.403 687.012 273.404 684.321C269.431 678.975 269.966 679.028 220.5 679.05C184.218 679.066 173.995 679.351 172.11 680.396Z" fill="#294751"/>
<path d="M2129.43 416.6C2117.43 416.6 2108.37 419.8 2102.23 426.2C2096.1 432.333 2092.23 443 2090.63 458.2C2090.63 460.333 2091.57 461.4 2093.43 461.4H2161.03C2163.43 461.4 2164.63 460.2 2164.63 457.8C2163.57 430.333 2151.83 416.6 2129.43 416.6ZM2139.43 589C2103.17 589 2075.17 579.8 2055.43 561.4C2035.97 543 2026.23 516.2 2026.23 481C2026.23 446.067 2034.9 419.4 2052.23 401C2069.83 382.333 2095.17 373 2128.23 373C2191.7 373 2223.97 407.667 2225.03 477C2225.03 483.4 2222.5 488.867 2217.43 493.4C2212.63 497.667 2207.03 499.8 2200.63 499.8H2093.83C2091.17 499.8 2090.1 501 2090.63 503.4C2092.77 518.067 2098.37 528.6 2107.43 535C2116.77 541.133 2130.63 544.2 2149.03 544.2C2161.03 544.2 2173.97 542.467 2187.83 539C2193.43 537.667 2198.37 538.733 2202.63 542.2C2207.17 545.667 2209.43 550.2 2209.43 555.8V556.6C2209.43 563.267 2207.3 569.4 2203.03 575C2199.03 580.333 2193.83 583.533 2187.43 584.6C2171.97 587.533 2155.97 589 2139.43 589Z" fill="#63D2BB"/>
<path d="M1722.8 585C1716.67 585 1711.33 582.733 1706.8 578.2C1702.27 573.667 1700 568.333 1700 562.2V399.8C1700 393.667 1702.27 388.333 1706.8 383.8C1711.33 379.267 1716.67 377 1722.8 377H1737.6C1744 377 1749.33 379.267 1753.6 383.8C1758.13 388.067 1760.67 393.4 1761.2 399.8L1761.6 403.4C1761.6 403.667 1761.73 403.8 1762 403.8C1762.53 403.8 1762.8 403.667 1762.8 403.4C1778.53 383.133 1796.53 373 1816.8 373C1829.07 373 1838.8 375.267 1846 379.8C1853.2 384.067 1859.87 391.8 1866 403C1866 403.533 1866.27 403.8 1866.8 403.8L1867.6 403C1886 383 1905.2 373 1925.2 373C1947.87 373 1964.27 379.133 1974.4 391.4C1984.53 403.4 1989.6 423.933 1989.6 453V562.2C1989.6 568.333 1987.33 573.667 1982.8 578.2C1978.27 582.733 1972.93 585 1966.8 585H1949.2C1943.07 585 1937.73 582.733 1933.2 578.2C1928.67 573.667 1926.4 568.333 1926.4 562.2V457C1926.4 442.6 1924.8 433.133 1921.6 428.6C1918.4 423.8 1912.4 421.4 1903.6 421.4C1897.47 421.4 1891.47 423.933 1885.6 429C1880 434.067 1877.2 439 1877.2 443.8V562.2C1877.2 568.333 1874.93 573.667 1870.4 578.2C1865.87 582.733 1860.53 585 1854.4 585H1836.8C1830.67 585 1825.33 582.733 1820.8 578.2C1816.27 573.667 1814 568.333 1814 562.2V457C1814 442.6 1812.4 433.133 1809.2 428.6C1806.27 423.8 1800.4 421.4 1791.6 421.4C1785.47 421.4 1779.47 423.933 1773.6 429C1767.73 434.067 1764.8 439 1764.8 443.8V562.2C1764.8 568.333 1762.53 573.667 1758 578.2C1753.47 582.733 1748.13 585 1742 585H1722.8Z" fill="#63D2BB"/>
<path d="M1515.54 456.2V505.8C1515.54 514.6 1519.54 522.733 1527.54 530.2C1535.81 537.4 1545.14 541 1555.54 541C1567.81 541 1577.54 536.067 1584.74 526.2C1591.94 516.067 1595.54 501 1595.54 481C1595.54 441 1582.21 421 1555.54 421C1545.14 421 1535.81 424.733 1527.54 432.2C1519.54 439.4 1515.54 447.4 1515.54 456.2ZM1475.14 673C1469.01 673 1463.68 670.733 1459.14 666.2C1454.61 661.667 1452.34 656.333 1452.34 650.2V399.8C1452.34 393.667 1454.61 388.333 1459.14 383.8C1463.68 379.267 1469.01 377 1475.14 377H1491.14C1497.54 377 1503.01 379.267 1507.54 383.8C1512.08 388.067 1514.48 393.4 1514.74 399.8V403C1514.74 403.267 1514.88 403.4 1515.14 403.4L1515.94 402.6C1533.01 382.867 1553.54 373 1577.54 373C1602.34 373 1622.08 382.333 1636.74 401C1651.68 419.667 1659.14 446.333 1659.14 481C1659.14 514.6 1651.41 541 1635.94 560.2C1620.74 579.4 1601.28 589 1577.54 589C1555.41 589 1535.68 580.867 1518.34 564.6C1518.08 564.333 1517.81 564.2 1517.54 564.2C1517.28 564.2 1517.14 564.333 1517.14 564.6V650.2C1517.14 656.333 1514.88 661.667 1510.34 666.2C1505.81 670.733 1500.48 673 1494.34 673H1475.14Z" fill="#284650"/>
<path d="M1315.76 416.6C1303.76 416.6 1294.7 419.8 1288.56 426.2C1282.43 432.333 1278.56 443 1276.96 458.2C1276.96 460.333 1277.9 461.4 1279.76 461.4H1347.36C1349.76 461.4 1350.96 460.2 1350.96 457.8C1349.9 430.333 1338.16 416.6 1315.76 416.6ZM1325.76 589C1289.5 589 1261.5 579.8 1241.76 561.4C1222.3 543 1212.56 516.2 1212.56 481C1212.56 446.067 1221.23 419.4 1238.56 401C1256.16 382.333 1281.5 373 1314.56 373C1378.03 373 1410.3 407.667 1411.36 477C1411.36 483.4 1408.83 488.867 1403.76 493.4C1398.96 497.667 1393.36 499.8 1386.96 499.8H1280.16C1277.5 499.8 1276.43 501 1276.96 503.4C1279.1 518.067 1284.7 528.6 1293.76 535C1303.1 541.133 1316.96 544.2 1335.36 544.2C1347.36 544.2 1360.3 542.467 1374.16 539C1379.76 537.667 1384.7 538.733 1388.96 542.2C1393.5 545.667 1395.76 550.2 1395.76 555.8V556.6C1395.76 563.267 1393.63 569.4 1389.36 575C1385.36 580.333 1380.16 583.533 1373.76 584.6C1358.3 587.533 1342.3 589 1325.76 589Z" fill="#284650"/>
<path d="M1038.2 456.2V505.8C1038.2 514.6 1042.2 522.733 1050.2 530.2C1058.47 537.4 1067.8 541 1078.2 541C1090.47 541 1100.2 536.067 1107.4 526.2C1114.6 516.067 1118.2 501 1118.2 481C1118.2 441 1104.87 421 1078.2 421C1067.8 421 1058.47 424.733 1050.2 432.2C1042.2 439.4 1038.2 447.4 1038.2 456.2ZM997.8 673C991.667 673 986.333 670.733 981.8 666.2C977.267 661.667 975 656.333 975 650.2V399.8C975 393.667 977.267 388.333 981.8 383.8C986.333 379.267 991.667 377 997.8 377H1013.8C1020.2 377 1025.67 379.267 1030.2 383.8C1034.73 388.067 1037.13 393.4 1037.4 399.8V403C1037.4 403.267 1037.53 403.4 1037.8 403.4L1038.6 402.6C1055.67 382.867 1076.2 373 1100.2 373C1125 373 1144.73 382.333 1159.4 401C1174.33 419.667 1181.8 446.333 1181.8 481C1181.8 514.6 1174.07 541 1158.6 560.2C1143.4 579.4 1123.93 589 1100.2 589C1078.07 589 1058.33 580.867 1041 564.6C1040.73 564.333 1040.47 564.2 1040.2 564.2C1039.93 564.2 1039.8 564.333 1039.8 564.6V650.2C1039.8 656.333 1037.53 661.667 1033 666.2C1028.47 670.733 1023.13 673 1017 673H997.8Z" fill="#284650"/>
</svg>
